<mxfile host="Electron" modified="2024-01-31T09:52:12.615Z" agent="Mozilla/5.0 (Windows NT 10.0; Win64; x64) AppleWebKit/537.36 (KHTML, like Gecko) draw.io/23.0.2 Chrome/120.0.6099.109 Electron/28.1.0 Safari/537.36" etag="zSbPcNhSqzg5aCL-SNdn" version="23.0.2" type="device">
  <diagram name="第 1 页" id="3xvIWA8aqSE_DKb2ckwe">
    <mxGraphModel dx="2184" dy="923" grid="1" gridSize="10" guides="1" tooltips="1" connect="1" arrows="1" fold="1" page="1" pageScale="1" pageWidth="827" pageHeight="1169" math="0" shadow="0">
      <root>
        <mxCell id="0" />
        <mxCell id="1" parent="0" />
        <mxCell id="DrJ_C-wPQQWUKH8ga-_k-1" value="6" style="ellipse;whiteSpace=wrap;html=1;fontFamily=Times New Roman;fontSize=19;" vertex="1" parent="1">
          <mxGeometry x="310" y="400" width="40" height="40" as="geometry" />
        </mxCell>
        <mxCell id="DrJ_C-wPQQWUKH8ga-_k-2" value="14" style="ellipse;whiteSpace=wrap;html=1;fontFamily=Times New Roman;fontSize=19;" vertex="1" parent="1">
          <mxGeometry x="379" y="400" width="40" height="40" as="geometry" />
        </mxCell>
        <mxCell id="DrJ_C-wPQQWUKH8ga-_k-19" style="edgeStyle=none;shape=connector;rounded=0;orthogonalLoop=1;jettySize=auto;html=1;exitX=0;exitY=1;exitDx=0;exitDy=0;entryX=0.5;entryY=0;entryDx=0;entryDy=0;labelBackgroundColor=default;strokeColor=default;align=center;verticalAlign=middle;fontFamily=Helvetica;fontSize=11;fontColor=default;endArrow=none;endFill=0;" edge="1" parent="1" source="DrJ_C-wPQQWUKH8ga-_k-3" target="DrJ_C-wPQQWUKH8ga-_k-1">
          <mxGeometry relative="1" as="geometry" />
        </mxCell>
        <mxCell id="DrJ_C-wPQQWUKH8ga-_k-20" style="edgeStyle=none;shape=connector;rounded=0;orthogonalLoop=1;jettySize=auto;html=1;exitX=1;exitY=1;exitDx=0;exitDy=0;entryX=0.5;entryY=0;entryDx=0;entryDy=0;labelBackgroundColor=default;strokeColor=default;align=center;verticalAlign=middle;fontFamily=Helvetica;fontSize=11;fontColor=default;endArrow=none;endFill=0;" edge="1" parent="1" source="DrJ_C-wPQQWUKH8ga-_k-3" target="DrJ_C-wPQQWUKH8ga-_k-2">
          <mxGeometry relative="1" as="geometry" />
        </mxCell>
        <mxCell id="DrJ_C-wPQQWUKH8ga-_k-3" value="12" style="ellipse;whiteSpace=wrap;html=1;fontFamily=Times New Roman;fontSize=19;" vertex="1" parent="1">
          <mxGeometry x="346" y="350" width="40" height="40" as="geometry" />
        </mxCell>
        <mxCell id="DrJ_C-wPQQWUKH8ga-_k-8" value="16" style="ellipse;whiteSpace=wrap;html=1;fontFamily=Times New Roman;fontSize=19;" vertex="1" parent="1">
          <mxGeometry x="386" y="300" width="40" height="40" as="geometry" />
        </mxCell>
        <mxCell id="DrJ_C-wPQQWUKH8ga-_k-9" value="23" style="ellipse;whiteSpace=wrap;html=1;fontFamily=Times New Roman;fontSize=19;" vertex="1" parent="1">
          <mxGeometry x="471" y="300" width="40" height="40" as="geometry" />
        </mxCell>
        <mxCell id="DrJ_C-wPQQWUKH8ga-_k-12" style="edgeStyle=none;shape=connector;rounded=0;orthogonalLoop=1;jettySize=auto;html=1;exitX=0;exitY=1;exitDx=0;exitDy=0;entryX=0.5;entryY=0;entryDx=0;entryDy=0;labelBackgroundColor=default;strokeColor=default;align=center;verticalAlign=middle;fontFamily=Helvetica;fontSize=11;fontColor=default;endArrow=none;endFill=0;" edge="1" parent="1" source="DrJ_C-wPQQWUKH8ga-_k-10" target="DrJ_C-wPQQWUKH8ga-_k-8">
          <mxGeometry relative="1" as="geometry" />
        </mxCell>
        <mxCell id="DrJ_C-wPQQWUKH8ga-_k-13" style="edgeStyle=none;shape=connector;rounded=0;orthogonalLoop=1;jettySize=auto;html=1;exitX=1;exitY=1;exitDx=0;exitDy=0;entryX=0.5;entryY=0;entryDx=0;entryDy=0;labelBackgroundColor=default;strokeColor=default;align=center;verticalAlign=middle;fontFamily=Helvetica;fontSize=11;fontColor=default;endArrow=none;endFill=0;" edge="1" parent="1" source="DrJ_C-wPQQWUKH8ga-_k-10" target="DrJ_C-wPQQWUKH8ga-_k-9">
          <mxGeometry relative="1" as="geometry" />
        </mxCell>
        <mxCell id="DrJ_C-wPQQWUKH8ga-_k-10" value="18" style="ellipse;whiteSpace=wrap;html=1;fontFamily=Times New Roman;fontSize=19;" vertex="1" parent="1">
          <mxGeometry x="428" y="250" width="40" height="40" as="geometry" />
        </mxCell>
        <mxCell id="DrJ_C-wPQQWUKH8ga-_k-21" style="edgeStyle=none;shape=connector;rounded=0;orthogonalLoop=1;jettySize=auto;html=1;exitX=0;exitY=1;exitDx=0;exitDy=0;entryX=0.749;entryY=0.066;entryDx=0;entryDy=0;entryPerimeter=0;labelBackgroundColor=default;strokeColor=default;align=center;verticalAlign=middle;fontFamily=Helvetica;fontSize=11;fontColor=default;endArrow=none;endFill=0;" edge="1" parent="1" source="DrJ_C-wPQQWUKH8ga-_k-8" target="DrJ_C-wPQQWUKH8ga-_k-3">
          <mxGeometry relative="1" as="geometry" />
        </mxCell>
        <mxCell id="DrJ_C-wPQQWUKH8ga-_k-22" value="6" style="ellipse;whiteSpace=wrap;html=1;fontFamily=Times New Roman;fontSize=19;" vertex="1" parent="1">
          <mxGeometry x="590" y="350" width="40" height="40" as="geometry" />
        </mxCell>
        <mxCell id="DrJ_C-wPQQWUKH8ga-_k-23" value="14" style="ellipse;whiteSpace=wrap;html=1;fontFamily=Times New Roman;fontSize=19;" vertex="1" parent="1">
          <mxGeometry x="659" y="350" width="40" height="40" as="geometry" />
        </mxCell>
        <mxCell id="DrJ_C-wPQQWUKH8ga-_k-24" style="edgeStyle=none;shape=connector;rounded=0;orthogonalLoop=1;jettySize=auto;html=1;exitX=0;exitY=1;exitDx=0;exitDy=0;entryX=0.5;entryY=0;entryDx=0;entryDy=0;labelBackgroundColor=default;strokeColor=default;align=center;verticalAlign=middle;fontFamily=Helvetica;fontSize=11;fontColor=default;endArrow=none;endFill=0;" edge="1" parent="1" source="DrJ_C-wPQQWUKH8ga-_k-26" target="DrJ_C-wPQQWUKH8ga-_k-22">
          <mxGeometry relative="1" as="geometry" />
        </mxCell>
        <mxCell id="DrJ_C-wPQQWUKH8ga-_k-25" style="edgeStyle=none;shape=connector;rounded=0;orthogonalLoop=1;jettySize=auto;html=1;exitX=1;exitY=1;exitDx=0;exitDy=0;entryX=0.5;entryY=0;entryDx=0;entryDy=0;labelBackgroundColor=default;strokeColor=default;align=center;verticalAlign=middle;fontFamily=Helvetica;fontSize=11;fontColor=default;endArrow=none;endFill=0;" edge="1" parent="1" source="DrJ_C-wPQQWUKH8ga-_k-26" target="DrJ_C-wPQQWUKH8ga-_k-23">
          <mxGeometry relative="1" as="geometry" />
        </mxCell>
        <mxCell id="DrJ_C-wPQQWUKH8ga-_k-26" value="12" style="ellipse;whiteSpace=wrap;html=1;fontFamily=Times New Roman;fontSize=19;" vertex="1" parent="1">
          <mxGeometry x="626" y="300" width="40" height="40" as="geometry" />
        </mxCell>
        <mxCell id="DrJ_C-wPQQWUKH8ga-_k-27" value="23" style="ellipse;whiteSpace=wrap;html=1;fontFamily=Times New Roman;fontSize=19;" vertex="1" parent="1">
          <mxGeometry x="743" y="350" width="40" height="40" as="geometry" />
        </mxCell>
        <mxCell id="DrJ_C-wPQQWUKH8ga-_k-28" style="edgeStyle=none;shape=connector;rounded=0;orthogonalLoop=1;jettySize=auto;html=1;exitX=1;exitY=1;exitDx=0;exitDy=0;entryX=0.5;entryY=0;entryDx=0;entryDy=0;labelBackgroundColor=default;strokeColor=default;align=center;verticalAlign=middle;fontFamily=Helvetica;fontSize=11;fontColor=default;endArrow=none;endFill=0;" edge="1" parent="1" source="DrJ_C-wPQQWUKH8ga-_k-29" target="DrJ_C-wPQQWUKH8ga-_k-27">
          <mxGeometry relative="1" as="geometry" />
        </mxCell>
        <mxCell id="DrJ_C-wPQQWUKH8ga-_k-29" value="18" style="ellipse;whiteSpace=wrap;html=1;fontFamily=Times New Roman;fontSize=19;" vertex="1" parent="1">
          <mxGeometry x="710" y="300" width="40" height="40" as="geometry" />
        </mxCell>
        <mxCell id="DrJ_C-wPQQWUKH8ga-_k-31" style="edgeStyle=none;shape=connector;rounded=0;orthogonalLoop=1;jettySize=auto;html=1;exitX=0;exitY=1;exitDx=0;exitDy=0;entryX=0.5;entryY=0;entryDx=0;entryDy=0;labelBackgroundColor=default;strokeColor=default;align=center;verticalAlign=middle;fontFamily=Helvetica;fontSize=11;fontColor=default;endArrow=none;endFill=0;" edge="1" parent="1" source="DrJ_C-wPQQWUKH8ga-_k-30" target="DrJ_C-wPQQWUKH8ga-_k-26">
          <mxGeometry relative="1" as="geometry" />
        </mxCell>
        <mxCell id="DrJ_C-wPQQWUKH8ga-_k-32" style="edgeStyle=none;shape=connector;rounded=0;orthogonalLoop=1;jettySize=auto;html=1;exitX=1;exitY=1;exitDx=0;exitDy=0;entryX=0.5;entryY=0;entryDx=0;entryDy=0;labelBackgroundColor=default;strokeColor=default;align=center;verticalAlign=middle;fontFamily=Helvetica;fontSize=11;fontColor=default;endArrow=none;endFill=0;" edge="1" parent="1" source="DrJ_C-wPQQWUKH8ga-_k-30" target="DrJ_C-wPQQWUKH8ga-_k-29">
          <mxGeometry relative="1" as="geometry" />
        </mxCell>
        <mxCell id="DrJ_C-wPQQWUKH8ga-_k-30" value="16" style="ellipse;whiteSpace=wrap;html=1;fontFamily=Times New Roman;fontSize=19;fontColor=default;" vertex="1" parent="1">
          <mxGeometry x="668" y="250" width="40" height="40" as="geometry" />
        </mxCell>
        <mxCell id="DrJ_C-wPQQWUKH8ga-_k-33" value="6" style="ellipse;whiteSpace=wrap;html=1;fontFamily=Times New Roman;fontSize=19;" vertex="1" parent="1">
          <mxGeometry x="100" y="350" width="40" height="40" as="geometry" />
        </mxCell>
        <mxCell id="DrJ_C-wPQQWUKH8ga-_k-34" value="16" style="ellipse;whiteSpace=wrap;html=1;fontFamily=Times New Roman;fontSize=19;" vertex="1" parent="1">
          <mxGeometry x="169" y="350" width="40" height="40" as="geometry" />
        </mxCell>
        <mxCell id="DrJ_C-wPQQWUKH8ga-_k-35" style="edgeStyle=none;shape=connector;rounded=0;orthogonalLoop=1;jettySize=auto;html=1;exitX=0;exitY=1;exitDx=0;exitDy=0;entryX=0.5;entryY=0;entryDx=0;entryDy=0;labelBackgroundColor=default;strokeColor=default;align=center;verticalAlign=middle;fontFamily=Helvetica;fontSize=11;fontColor=default;endArrow=none;endFill=0;" edge="1" parent="1" source="DrJ_C-wPQQWUKH8ga-_k-37" target="DrJ_C-wPQQWUKH8ga-_k-33">
          <mxGeometry relative="1" as="geometry" />
        </mxCell>
        <mxCell id="DrJ_C-wPQQWUKH8ga-_k-36" style="edgeStyle=none;shape=connector;rounded=0;orthogonalLoop=1;jettySize=auto;html=1;exitX=1;exitY=1;exitDx=0;exitDy=0;entryX=0.5;entryY=0;entryDx=0;entryDy=0;labelBackgroundColor=default;strokeColor=default;align=center;verticalAlign=middle;fontFamily=Helvetica;fontSize=11;fontColor=default;endArrow=none;endFill=0;" edge="1" parent="1" source="DrJ_C-wPQQWUKH8ga-_k-37" target="DrJ_C-wPQQWUKH8ga-_k-34">
          <mxGeometry relative="1" as="geometry" />
        </mxCell>
        <mxCell id="DrJ_C-wPQQWUKH8ga-_k-37" value="12" style="ellipse;whiteSpace=wrap;html=1;fontFamily=Times New Roman;fontSize=19;" vertex="1" parent="1">
          <mxGeometry x="136" y="300" width="40" height="40" as="geometry" />
        </mxCell>
        <mxCell id="DrJ_C-wPQQWUKH8ga-_k-40" value="23" style="ellipse;whiteSpace=wrap;html=1;fontFamily=Times New Roman;fontSize=19;" vertex="1" parent="1">
          <mxGeometry x="220" y="300" width="40" height="40" as="geometry" />
        </mxCell>
        <mxCell id="DrJ_C-wPQQWUKH8ga-_k-41" style="edgeStyle=none;shape=connector;rounded=0;orthogonalLoop=1;jettySize=auto;html=1;exitX=0;exitY=1;exitDx=0;exitDy=0;entryX=0.5;entryY=0;entryDx=0;entryDy=0;labelBackgroundColor=default;strokeColor=default;align=center;verticalAlign=middle;fontFamily=Helvetica;fontSize=11;fontColor=default;endArrow=none;endFill=0;" edge="1" parent="1" source="DrJ_C-wPQQWUKH8ga-_k-43" target="DrJ_C-wPQQWUKH8ga-_k-37">
          <mxGeometry relative="1" as="geometry" />
        </mxCell>
        <mxCell id="DrJ_C-wPQQWUKH8ga-_k-42" style="edgeStyle=none;shape=connector;rounded=0;orthogonalLoop=1;jettySize=auto;html=1;exitX=1;exitY=1;exitDx=0;exitDy=0;entryX=0.5;entryY=0;entryDx=0;entryDy=0;labelBackgroundColor=default;strokeColor=default;align=center;verticalAlign=middle;fontFamily=Helvetica;fontSize=11;fontColor=default;endArrow=none;endFill=0;" edge="1" parent="1" source="DrJ_C-wPQQWUKH8ga-_k-43" target="DrJ_C-wPQQWUKH8ga-_k-40">
          <mxGeometry relative="1" as="geometry" />
        </mxCell>
        <mxCell id="DrJ_C-wPQQWUKH8ga-_k-43" value="18" style="ellipse;whiteSpace=wrap;html=1;fontFamily=Times New Roman;fontSize=19;fontColor=default;" vertex="1" parent="1">
          <mxGeometry x="178" y="250" width="40" height="40" as="geometry" />
        </mxCell>
        <mxCell id="DrJ_C-wPQQWUKH8ga-_k-44" value="14" style="ellipse;whiteSpace=wrap;html=1;fontFamily=Times New Roman;fontSize=19;" vertex="1" parent="1">
          <mxGeometry x="140" y="406" width="40" height="40" as="geometry" />
        </mxCell>
        <mxCell id="DrJ_C-wPQQWUKH8ga-_k-45" style="edgeStyle=none;shape=connector;rounded=0;orthogonalLoop=1;jettySize=auto;html=1;exitX=0.315;exitY=0.961;exitDx=0;exitDy=0;entryX=0.5;entryY=0;entryDx=0;entryDy=0;labelBackgroundColor=default;strokeColor=default;align=center;verticalAlign=middle;fontFamily=Helvetica;fontSize=11;fontColor=default;endArrow=none;endFill=0;exitPerimeter=0;" edge="1" parent="1" target="DrJ_C-wPQQWUKH8ga-_k-44" source="DrJ_C-wPQQWUKH8ga-_k-34">
          <mxGeometry relative="1" as="geometry">
            <mxPoint x="182" y="390" as="sourcePoint" />
          </mxGeometry>
        </mxCell>
        <mxCell id="DrJ_C-wPQQWUKH8ga-_k-46" value="6" style="ellipse;whiteSpace=wrap;html=1;fontFamily=Times New Roman;fontSize=19;" vertex="1" parent="1">
          <mxGeometry x="-140" y="350" width="40" height="40" as="geometry" />
        </mxCell>
        <mxCell id="DrJ_C-wPQQWUKH8ga-_k-47" value="16" style="ellipse;whiteSpace=wrap;html=1;fontFamily=Times New Roman;fontSize=19;" vertex="1" parent="1">
          <mxGeometry x="-71" y="350" width="40" height="40" as="geometry" />
        </mxCell>
        <mxCell id="DrJ_C-wPQQWUKH8ga-_k-48" style="edgeStyle=none;shape=connector;rounded=0;orthogonalLoop=1;jettySize=auto;html=1;exitX=0;exitY=1;exitDx=0;exitDy=0;entryX=0.5;entryY=0;entryDx=0;entryDy=0;labelBackgroundColor=default;strokeColor=default;align=center;verticalAlign=middle;fontFamily=Helvetica;fontSize=11;fontColor=default;endArrow=none;endFill=0;" edge="1" parent="1" source="DrJ_C-wPQQWUKH8ga-_k-50" target="DrJ_C-wPQQWUKH8ga-_k-46">
          <mxGeometry relative="1" as="geometry" />
        </mxCell>
        <mxCell id="DrJ_C-wPQQWUKH8ga-_k-49" style="edgeStyle=none;shape=connector;rounded=0;orthogonalLoop=1;jettySize=auto;html=1;exitX=1;exitY=1;exitDx=0;exitDy=0;entryX=0.5;entryY=0;entryDx=0;entryDy=0;labelBackgroundColor=default;strokeColor=default;align=center;verticalAlign=middle;fontFamily=Helvetica;fontSize=11;fontColor=default;endArrow=none;endFill=0;" edge="1" parent="1" source="DrJ_C-wPQQWUKH8ga-_k-50" target="DrJ_C-wPQQWUKH8ga-_k-47">
          <mxGeometry relative="1" as="geometry" />
        </mxCell>
        <mxCell id="DrJ_C-wPQQWUKH8ga-_k-50" value="12" style="ellipse;whiteSpace=wrap;html=1;fontFamily=Times New Roman;fontSize=19;" vertex="1" parent="1">
          <mxGeometry x="-104" y="300" width="40" height="40" as="geometry" />
        </mxCell>
        <mxCell id="DrJ_C-wPQQWUKH8ga-_k-51" value="23" style="ellipse;whiteSpace=wrap;html=1;fontFamily=Times New Roman;fontSize=19;" vertex="1" parent="1">
          <mxGeometry x="-20" y="300" width="40" height="40" as="geometry" />
        </mxCell>
        <mxCell id="DrJ_C-wPQQWUKH8ga-_k-52" style="edgeStyle=none;shape=connector;rounded=0;orthogonalLoop=1;jettySize=auto;html=1;exitX=0;exitY=1;exitDx=0;exitDy=0;entryX=0.5;entryY=0;entryDx=0;entryDy=0;labelBackgroundColor=default;strokeColor=default;align=center;verticalAlign=middle;fontFamily=Helvetica;fontSize=11;fontColor=default;endArrow=none;endFill=0;" edge="1" parent="1" source="DrJ_C-wPQQWUKH8ga-_k-54" target="DrJ_C-wPQQWUKH8ga-_k-50">
          <mxGeometry relative="1" as="geometry" />
        </mxCell>
        <mxCell id="DrJ_C-wPQQWUKH8ga-_k-53" style="edgeStyle=none;shape=connector;rounded=0;orthogonalLoop=1;jettySize=auto;html=1;exitX=1;exitY=1;exitDx=0;exitDy=0;entryX=0.5;entryY=0;entryDx=0;entryDy=0;labelBackgroundColor=default;strokeColor=default;align=center;verticalAlign=middle;fontFamily=Helvetica;fontSize=11;fontColor=default;endArrow=none;endFill=0;" edge="1" parent="1" source="DrJ_C-wPQQWUKH8ga-_k-54" target="DrJ_C-wPQQWUKH8ga-_k-51">
          <mxGeometry relative="1" as="geometry" />
        </mxCell>
        <mxCell id="DrJ_C-wPQQWUKH8ga-_k-54" value="18" style="ellipse;whiteSpace=wrap;html=1;fontFamily=Times New Roman;fontSize=19;fontColor=default;" vertex="1" parent="1">
          <mxGeometry x="-62" y="250" width="40" height="40" as="geometry" />
        </mxCell>
        <mxCell id="DrJ_C-wPQQWUKH8ga-_k-58" value="" style="group" vertex="1" connectable="0" parent="1">
          <mxGeometry x="39" y="300" width="70" height="30" as="geometry" />
        </mxCell>
        <mxCell id="DrJ_C-wPQQWUKH8ga-_k-55" value="" style="endArrow=classic;html=1;rounded=0;labelBackgroundColor=default;strokeColor=default;align=center;verticalAlign=middle;fontFamily=Helvetica;fontSize=11;fontColor=default;shape=connector;" edge="1" parent="DrJ_C-wPQQWUKH8ga-_k-58">
          <mxGeometry width="50" height="50" relative="1" as="geometry">
            <mxPoint y="30" as="sourcePoint" />
            <mxPoint x="70" y="30" as="targetPoint" />
          </mxGeometry>
        </mxCell>
        <mxCell id="DrJ_C-wPQQWUKH8ga-_k-56" value="&lt;span style=&quot;font-size: 19px;&quot;&gt;&lt;font face=&quot;SimSun&quot;&gt;插入&lt;/font&gt;&lt;font face=&quot;Times New Roman&quot;&gt;14&lt;/font&gt;&lt;/span&gt;" style="text;html=1;strokeColor=none;fillColor=none;align=center;verticalAlign=middle;whiteSpace=wrap;rounded=0;fontSize=11;fontFamily=Helvetica;fontColor=default;" vertex="1" parent="DrJ_C-wPQQWUKH8ga-_k-58">
          <mxGeometry width="70" height="30" as="geometry" />
        </mxCell>
        <mxCell id="DrJ_C-wPQQWUKH8ga-_k-59" value="" style="group" vertex="1" connectable="0" parent="1">
          <mxGeometry x="528" y="300" width="70" height="30" as="geometry" />
        </mxCell>
        <mxCell id="DrJ_C-wPQQWUKH8ga-_k-60" value="" style="endArrow=classic;html=1;rounded=0;labelBackgroundColor=default;strokeColor=default;align=center;verticalAlign=middle;fontFamily=Helvetica;fontSize=11;fontColor=default;shape=connector;" edge="1" parent="DrJ_C-wPQQWUKH8ga-_k-59">
          <mxGeometry width="50" height="50" relative="1" as="geometry">
            <mxPoint y="30" as="sourcePoint" />
            <mxPoint x="70" y="30" as="targetPoint" />
          </mxGeometry>
        </mxCell>
        <mxCell id="DrJ_C-wPQQWUKH8ga-_k-61" value="&lt;span style=&quot;font-size: 19px;&quot;&gt;&lt;font face=&quot;Times New Roman&quot;&gt;LL(18)&lt;/font&gt;&lt;/span&gt;" style="text;html=1;strokeColor=none;fillColor=none;align=center;verticalAlign=middle;whiteSpace=wrap;rounded=0;fontSize=11;fontFamily=Helvetica;fontColor=default;" vertex="1" parent="DrJ_C-wPQQWUKH8ga-_k-59">
          <mxGeometry width="70" height="30" as="geometry" />
        </mxCell>
        <mxCell id="DrJ_C-wPQQWUKH8ga-_k-62" value="" style="group" vertex="1" connectable="0" parent="1">
          <mxGeometry x="280" y="300" width="70" height="30" as="geometry" />
        </mxCell>
        <mxCell id="DrJ_C-wPQQWUKH8ga-_k-63" value="" style="endArrow=classic;html=1;rounded=0;labelBackgroundColor=default;strokeColor=default;align=center;verticalAlign=middle;fontFamily=Helvetica;fontSize=11;fontColor=default;shape=connector;" edge="1" parent="DrJ_C-wPQQWUKH8ga-_k-62">
          <mxGeometry width="50" height="50" relative="1" as="geometry">
            <mxPoint y="30" as="sourcePoint" />
            <mxPoint x="70" y="30" as="targetPoint" />
          </mxGeometry>
        </mxCell>
        <mxCell id="DrJ_C-wPQQWUKH8ga-_k-64" value="&lt;span style=&quot;font-size: 19px;&quot;&gt;&lt;font face=&quot;Times New Roman&quot;&gt;RR(12)&lt;/font&gt;&lt;/span&gt;" style="text;html=1;strokeColor=none;fillColor=none;align=center;verticalAlign=middle;whiteSpace=wrap;rounded=0;fontSize=11;fontFamily=Helvetica;fontColor=default;" vertex="1" parent="DrJ_C-wPQQWUKH8ga-_k-62">
          <mxGeometry width="70" height="30" as="geometry" />
        </mxCell>
        <mxCell id="DrJ_C-wPQQWUKH8ga-_k-65" value="&lt;span style=&quot;font-size: 19px;&quot;&gt;(a)&lt;/span&gt;" style="text;html=1;strokeColor=none;fillColor=none;align=center;verticalAlign=middle;whiteSpace=wrap;rounded=0;fontSize=11;fontFamily=Helvetica;fontColor=default;" vertex="1" parent="1">
          <mxGeometry x="-73" y="440" width="60" height="30" as="geometry" />
        </mxCell>
        <mxCell id="DrJ_C-wPQQWUKH8ga-_k-66" value="&lt;span style=&quot;font-size: 19px;&quot;&gt;(d)&lt;/span&gt;" style="text;html=1;strokeColor=none;fillColor=none;align=center;verticalAlign=middle;whiteSpace=wrap;rounded=0;fontSize=11;fontFamily=Helvetica;fontColor=default;" vertex="1" parent="1">
          <mxGeometry x="659" y="446" width="60" height="30" as="geometry" />
        </mxCell>
        <mxCell id="DrJ_C-wPQQWUKH8ga-_k-67" value="&lt;span style=&quot;font-size: 19px;&quot;&gt;(c)&lt;/span&gt;" style="text;html=1;strokeColor=none;fillColor=none;align=center;verticalAlign=middle;whiteSpace=wrap;rounded=0;fontSize=11;fontFamily=Helvetica;fontColor=default;" vertex="1" parent="1">
          <mxGeometry x="418" y="446" width="60" height="30" as="geometry" />
        </mxCell>
        <mxCell id="DrJ_C-wPQQWUKH8ga-_k-68" value="&lt;span style=&quot;font-size: 19px;&quot;&gt;(b)&lt;/span&gt;" style="text;html=1;strokeColor=none;fillColor=none;align=center;verticalAlign=middle;whiteSpace=wrap;rounded=0;fontSize=11;fontFamily=Helvetica;fontColor=default;" vertex="1" parent="1">
          <mxGeometry x="168" y="446" width="60" height="30" as="geometry" />
        </mxCell>
      </root>
    </mxGraphModel>
  </diagram>
</mxfile>
